<svg width="29" height="23" viewBox="0 0 29 23" fill="none" xmlns="http://www.w3.org/2000/svg">
<path d="M26.58 0.447997V5.072H23.928C21.8427 5.072 20.8 6.11466 20.8 8.2V10.376H21.956C23.7693 10.376 25.2653 10.92 26.444 12.008C27.668 13.096 28.28 14.4787 28.28 16.156C28.28 17.9693 27.668 19.4427 26.444 20.576C25.2653 21.7093 23.7693 22.276 21.956 22.276C20.0973 22.276 18.5787 21.7093 17.4 20.576C16.2213 19.3973 15.632 17.8333 15.632 15.884V8.064C15.632 2.98666 18.1707 0.447997 23.248 0.447997H26.58ZM11.62 0.447997V5.072H8.968C6.88267 5.072 5.84 6.11466 5.84 8.2V10.376H6.996C8.80933 10.376 10.3053 10.92 11.484 12.008C12.708 13.096 13.32 14.4787 13.32 16.156C13.32 17.9693 12.708 19.4427 11.484 20.576C10.3053 21.7093 8.80933 22.276 6.996 22.276C5.13733 22.276 3.61867 21.7093 2.44 20.576C1.26133 19.3973 0.672 17.8333 0.672 15.884V8.064C0.672 2.98666 3.21067 0.447997 8.288 0.447997H11.62Z" fill="white"/>
</svg>
