<svg width="184" height="185" viewBox="0 0 184 185" fill="none" xmlns="http://www.w3.org/2000/svg">
<path d="M83.9752 85.6264C76.899 85.6264 69.9817 83.528 64.0981 79.5967C58.2145 75.6654 53.6287 70.0777 50.9208 63.5402C48.2129 57.0026 47.5043 49.8089 48.8848 42.8687C50.2653 35.9285 53.6728 29.5535 58.6764 24.5499C63.6801 19.5463 70.055 16.1388 76.9953 14.7583C83.9355 13.3778 91.1292 14.0863 97.6667 16.7942C104.204 19.5022 109.792 24.0879 113.723 29.9715C117.655 35.8552 119.753 42.7724 119.753 49.8486C119.753 59.3374 115.983 68.4377 109.274 75.1473C102.564 81.8569 93.464 85.6264 83.9752 85.6264ZM83.9752 24.7019C78.9207 24.7019 73.9798 26.2007 69.7773 29.0088C65.5747 31.8169 62.2991 35.8081 60.3649 40.4778C58.4307 45.1475 57.9246 50.2858 58.9106 55.2431C59.8967 60.2004 62.3306 64.754 65.9047 68.328C69.4787 71.902 74.0322 74.3359 78.9895 75.322C83.9468 76.3081 89.0852 75.802 93.7548 73.8677C98.4245 71.9335 102.416 68.658 105.224 64.4554C108.032 60.2528 109.531 55.3119 109.531 50.2575C109.531 46.9015 108.87 43.5783 107.585 40.4778C106.301 37.3773 104.419 34.56 102.046 32.187C99.6726 29.8139 96.8554 27.9315 93.7548 26.6472C90.6543 25.3629 87.3312 24.7019 83.9752 24.7019ZM112.444 91.8108C84.7851 85.5831 55.8478 88.581 30.0529 100.346C26.5053 102.041 23.512 104.709 21.4218 108.039C19.3315 111.368 18.2303 115.224 18.2463 119.155V149.566C18.2463 150.238 18.3785 150.902 18.6353 151.522C18.8922 152.142 19.2687 152.706 19.7433 153.18C20.2179 153.655 20.7813 154.032 21.4014 154.288C22.0215 154.545 22.6862 154.677 23.3574 154.677C24.0286 154.677 24.6932 154.545 25.3133 154.288C25.9334 154.032 26.4969 153.655 26.9715 153.18C27.4461 152.706 27.8226 152.142 28.0794 151.522C28.3363 150.902 28.4685 150.238 28.4685 149.566V119.155C28.424 117.166 28.9613 115.206 30.0145 113.517C31.0677 111.829 32.591 110.484 34.3974 109.649C49.936 102.472 66.8595 98.7908 83.9752 98.8642C93.5651 98.8529 103.122 99.9853 112.444 102.237V91.8108ZM113.16 140.417H144.542V147.573H113.16V140.417Z" fill="#014751"/>
<path d="M169.535 110.058H143.111V120.28H164.424V163.06H91.9996V120.28H124.2V122.426C124.2 123.782 124.738 125.082 125.697 126.041C126.655 126.999 127.955 127.538 129.311 127.538C130.666 127.538 131.966 126.999 132.925 126.041C133.883 125.082 134.422 123.782 134.422 122.426V102.544C134.422 101.189 133.883 99.8886 132.925 98.9301C131.966 97.9716 130.666 97.4331 129.311 97.4331C127.955 97.4331 126.655 97.9716 125.697 98.9301C124.738 99.8886 124.2 101.189 124.2 102.544V110.058H86.8885C85.5329 110.058 84.2329 110.596 83.2743 111.555C82.3158 112.513 81.7773 113.813 81.7773 115.169V168.171C81.7773 169.526 82.3158 170.826 83.2743 171.785C84.2329 172.743 85.5329 173.282 86.8885 173.282H169.535C170.891 173.282 172.191 172.743 173.149 171.785C174.108 170.826 174.646 169.526 174.646 168.171V115.169C174.646 113.813 174.108 112.513 173.149 111.555C172.191 110.596 170.891 110.058 169.535 110.058Z" fill="#014751"/>
</svg>
