<svg width="154" height="132" viewBox="0 0 154 132" fill="none" xmlns="http://www.w3.org/2000/svg">
<path fill-rule="evenodd" clip-rule="evenodd" d="M146 115.988C147.954 115.99 149.834 116.739 151.254 118.08C152.675 119.422 153.53 121.255 153.645 123.206C153.759 125.156 153.125 127.077 151.871 128.576C150.616 130.074 148.837 131.037 146.897 131.268L146 131.322H7.99997C6.04589 131.319 4.16639 130.571 2.74548 129.23C1.32457 127.888 0.469502 126.055 0.354984 124.104C0.240466 122.154 0.875142 120.233 2.12933 118.734C3.38353 117.236 5.16257 116.273 7.10297 116.042L7.99997 115.988H146ZM130.667 0.988282C134.535 0.987058 138.261 2.44806 141.098 5.07842C143.934 7.70879 145.672 11.3141 145.962 15.1716L146 16.3216V92.9883C146.001 96.8567 144.54 100.583 141.91 103.419C139.279 106.256 135.674 107.993 131.817 108.283L130.667 108.322H23.3333C19.4649 108.323 15.739 106.862 12.9024 104.231C10.0659 101.601 8.32844 97.9958 8.0383 94.1383L7.99997 92.9883V16.3216C7.99875 12.4532 9.45975 8.72727 12.0901 5.89075C14.7205 3.05422 18.3258 1.31675 22.1833 1.02662L23.3333 0.988282H130.667ZM130.667 16.3216H23.3333V92.9883H130.667V16.3216Z" fill="#014751"/>
</svg>
